<?xml version="1.0" encoding="UTF-8" standalone="no"?><!DOCTYPE svg PUBLIC "-//W3C//DTD SVG 1.1//EN" "http://www.w3.org/Graphics/SVG/1.1/DTD/svg11.dtd"><svg width="100%" height="100%" viewBox="0 0 4000 4000" version="1.1" xmlns="http://www.w3.org/2000/svg" xmlns:xlink="http://www.w3.org/1999/xlink" xml:space="preserve" xmlns:serif="http://www.serif.com/" style="fill-rule:evenodd;clip-rule:evenodd;stroke-linejoin:round;stroke-miterlimit:2;"><path d="M3547.36,1382.04l267.336,267.336l0,350.624l-1814.69,1814.69l0,-393.3l1421.39,-1421.39l0,-617.96l125.964,0Z" style="fill:#ff0041;"/><path d="M2000,2096.84l1443.96,-1443.96l0,1347.12l-1443.96,1443.96l0,-1347.12" style="fill:#00ad9c;"/><path d="M2000,173.973l218.949,0l284.41,284.41l0,1135.1l-503.359,503.36l0,-1922.87Z" style="fill:#ff0041;"/><path d="M2437.9,794.04l-437.898,437.898l0,150.102l437.898,-437.897l0,-150.103Z" style="fill:#8b0023;"/><path d="M3464.81,1205.75l417.173,417.172l0,377.074l-1881.98,1881.98l0,-182.313l1755.87,-1755.87l0,-267.531l-291.061,-291.061l0,-179.453Z" style="fill:#262626;"/><path d="M452.644,1382.04l-267.336,267.336l0,350.624l1814.69,1814.69l0,-393.3l-1421.39,-1421.39l0,-617.96l-125.964,0Z" style="fill:#ff0041;"/><path d="M2000,2096.84l-1443.96,-1443.96l0,1347.12l1443.96,1443.96l0,-1347.12" style="fill:#f8ed00;"/><path d="M2000,173.973l-218.949,0l-284.41,284.41l0,1135.1l503.359,503.36l0,-1922.87Z" style="fill:#ff0041;"/><path d="M1562.1,794.04l437.898,437.898l0,150.102l-437.898,-437.897l0,-150.103Z" style="fill:#8b0023;"/><path d="M535.19,1205.75l-417.173,417.172l0,377.074l1881.98,1881.98l0,-182.313l-1755.87,-1755.87l0,-267.531l291.061,-291.061l0,-179.453Z" style="fill:#262626;"/><path d="M2000,117.567l192.314,0l371.495,371.495l0,947.748l941.694,-941.694l0,1504.88l-1505.5,1505.5l0,-147.715l1400.27,-1400.27l0,-1205.86l-1400.27,1400.27l0,-151.925l437.898,-437.898l0,-1011.46l-307.73,-307.729l-130.168,0l0,-125.348Z" style="fill:#262626;"/><path d="M2000,3505.5l0,-147.715" style="fill:none;"/><path d="M2000,3357.79l-1400.27,-1400.27l0,-1205.86l1400.27,1400.27l0,-151.925l-437.898,-437.898l0,-1011.46l307.73,-307.729l130.168,0l0,-125.348l-192.314,0l-371.495,371.495l0,947.748l-941.694,-941.694l0,1504.88l1505.5,1505.5" style="fill:#262626;"/></svg>